<svg data-logo="logo" xmlns="http://www.w3.org/2000/svg" viewBox="0 0 222 43">
        <g style="opacity: 1;" id="logogram" transform="translate(0, 1) rotate(0)"><path d="M40.1509 20.27C40.1509 31.3157 31.1966 40.27 20.1509 40.27C9.10524 40.27 0.150879 31.3157 0.150879 20.27C0.150879 9.2243 9.10524 0.269989 20.1509 0.269989C31.1966 0.269989 40.1509 9.2243 40.1509 20.27Z" fill="#F83030"></path><path d="M63.1509 20.27C63.1509 31.3157 54.1964 40.27 43.1508 40.27C32.1052 40.27 23.1509 31.3157 23.1509 20.27C23.1509 9.2243 32.1052 0.269989 43.1508 0.269989C54.1964 0.269989 63.1509 9.2243 63.1509 20.27Z" fill="#4D58FF"></path><path fill-rule="evenodd" clip-rule="evenodd" d="M31.6509 36.6351C36.792 33.0157 40.1509 27.0351 40.1509 20.27C40.1509 13.5049 36.792 7.52425 31.6509 3.90488C26.5098 7.52425 23.1509 13.5049 23.1509 20.27C23.1509 27.0351 26.5098 33.0157 31.6509 36.6351Z" fill="#000000"></path></g>
        <g style="opacity: 1;" id="logotype" transform="translate(70, 8.5)"><path fill="#111111" d="M23.19 1.43L23.19 6.19L14.09 6.19L14.09 11.23L22.14 11.23L22.14 15.81L14.09 15.81L14.09 21.24L23.19 21.24L23.19 26L8.17 26L8.17 1.43L23.19 1.43ZM33.09 26.25L33.09 26.25Q30.54 26.25 28.63 24.91Q26.72 23.59 25.69 21.33Q24.66 19.07 24.66 16.23L24.66 16.23Q24.66 13.43 25.69 11.16Q26.72 8.88 28.63 7.55Q30.54 6.22 33.09 6.22L33.09 6.22Q35.33 6.22 36.99 7.43Q38.66 8.64 39.32 10.81L39.32 10.81L39.32 0.10L45.23 0.10L45.23 26L42.33 26Q40.93 26 40.13 25.21Q39.32 24.43 39.32 23.02L39.32 23.02L39.32 21.70Q38.66 23.83 36.99 25.04Q35.33 26.25 33.09 26.25ZM35.02 21.06L35.02 21.06Q36.17 21.06 37.15 20.50Q38.13 19.95 38.73 18.86Q39.32 17.77 39.32 16.23L39.32 16.23Q39.32 14.73 38.73 13.64Q38.13 12.56 37.15 11.96Q36.17 11.37 35.02 11.37L35.02 11.37Q33.83 11.37 32.84 11.96Q31.87 12.56 31.29 13.64Q30.71 14.73 30.71 16.23L30.71 16.23Q30.71 17.77 31.29 18.86Q31.87 19.95 32.86 20.50Q33.86 21.06 35.02 21.06ZM61.68 23.02L61.68 23.02L61.68 6.47L67.60 6.47L67.60 26L64.66 26Q63.26 26 62.47 25.21Q61.68 24.43 61.68 23.02ZM55.70 26.25L55.70 26.25Q53.32 26.25 51.66 25.20Q49.99 24.14 49.12 22.25Q48.24 20.36 48.24 17.84L48.24 17.84L48.24 6.47L54.13 6.47L54.13 16.97Q54.13 19 55.16 20.12Q56.19 21.24 57.91 21.24L57.91 21.24Q59.09 21.24 59.93 20.64Q60.77 20.05 61.23 19Q61.68 17.95 61.68 16.62L61.68 16.62L62.49 17.63Q62.38 20.64 61.46 22.54Q60.53 24.43 59.02 25.34Q57.52 26.25 55.70 26.25ZM82.06 26.25L82.06 26.25Q79.36 26.25 77.10 25.32Q74.85 24.39 73.20 22.69Q71.56 20.99 70.66 18.72Q69.77 16.45 69.77 13.71L69.77 13.71Q69.77 10.91 70.68 8.62Q71.59 6.33 73.25 4.67Q74.92 3.00 77.17 2.09Q79.43 1.18 82.06 1.18L82.06 1.18Q84.86 1.18 87.13 2.16Q89.41 3.14 91.02 4.95Q92.63 6.75 93.40 9.23L93.40 9.23L87.66 11.02Q86.92 8.64 85.47 7.61Q84.02 6.57 82.02 6.57L82.02 6.57Q80.17 6.57 78.77 7.45Q77.37 8.32 76.58 9.93Q75.79 11.54 75.79 13.71L75.79 13.71Q75.79 15.88 76.56 17.49Q77.33 19.11 78.73 20.00Q80.13 20.89 81.99 20.89L81.99 20.89Q84.12 20.89 85.59 19.77Q87.06 18.65 87.83 16.41L87.83 16.41L93.64 17.77Q92.94 20.40 91.28 22.31Q89.62 24.21 87.25 25.23Q84.89 26.25 82.06 26.25ZM103.09 26.25L103.09 26.25Q100.54 26.25 98.63 24.91Q96.72 23.59 95.69 21.33Q94.66 19.07 94.66 16.23L94.66 16.23Q94.66 13.43 95.69 11.16Q96.72 8.88 98.63 7.55Q100.54 6.22 103.09 6.22L103.09 6.22Q105.33 6.22 106.99 7.43Q108.66 8.64 109.32 10.81L109.32 10.81L109.32 6.47L115.24 6.47L115.24 26L112.33 26Q110.93 26 110.13 25.21Q109.32 24.43 109.32 23.02L109.32 23.02L109.32 21.70Q108.66 23.83 106.99 25.04Q105.33 26.25 103.09 26.25ZM105.02 21.06L105.02 21.06Q106.17 21.06 107.15 20.50Q108.13 19.95 108.73 18.86Q109.32 17.77 109.32 16.23L109.32 16.23Q109.32 14.73 108.73 13.64Q108.13 12.56 107.15 11.96Q106.17 11.37 105.02 11.37L105.02 11.37Q103.83 11.37 102.85 11.96Q101.87 12.56 101.29 13.64Q100.71 14.73 100.71 16.23L100.71 16.23Q100.71 17.77 101.29 18.86Q101.87 19.95 102.86 20.50Q103.86 21.06 105.02 21.06ZM124.30 26L118.39 26L118.39 6.47L124.30 6.47L124.30 26ZM124.30 17.60L123.39 17.60L124.30 11.19Q124.93 8.92 126.51 7.61Q128.08 6.29 130.53 6.29L130.53 6.29L130.53 12.45Q130.15 12.38 129.80 12.35Q129.45 12.31 129.10 12.31L129.10 12.31Q127.80 12.31 126.72 12.93Q125.63 13.54 124.97 14.71Q124.30 15.88 124.30 17.60L124.30 17.60ZM141.77 26.25L141.77 26.25Q139.63 26.25 137.69 25.58Q135.75 24.91 134.26 23.64Q132.77 22.36 131.91 20.54Q131.06 18.72 131.06 16.38L131.06 16.38Q131.06 14.13 131.88 12.28Q132.70 10.42 134.12 9.06Q135.54 7.69 137.41 6.96Q139.28 6.22 141.38 6.22L141.38 6.22Q143.10 6.22 144.65 6.68Q146.21 7.13 147.45 8.01Q148.70 8.88 149.41 10.07Q150.13 11.26 150.13 12.73L150.13 12.73Q150.13 14.59 149.08 15.81Q148.03 17.04 146.33 17.74Q144.64 18.44 142.62 18.74Q140.61 19.04 138.65 19L138.65 19Q138.41 19 138.07 18.98Q137.74 18.96 137.46 18.95Q137.18 18.93 137.04 18.93L137.04 18.93Q137.25 19.73 137.93 20.38Q138.62 21.03 139.67 21.41Q140.72 21.80 141.84 21.80L141.84 21.80Q142.96 21.80 143.99 21.41Q145.02 21.03 145.86 20.43Q146.70 19.84 147.30 19.11L147.30 19.11L151.08 22.08Q150.03 23.48 148.52 24.41Q147.02 25.34 145.28 25.79Q143.55 26.25 141.77 26.25ZM138.69 15.11L138.69 15.11Q139.63 15.11 140.65 15.01Q141.66 14.90 142.52 14.64Q143.38 14.38 143.92 13.91Q144.46 13.43 144.46 12.70L144.46 12.70Q144.46 12.10 144.04 11.65Q143.62 11.19 142.92 10.95Q142.22 10.70 141.42 10.70L141.42 10.70Q140.02 10.70 138.97 11.37Q137.92 12.03 137.36 13.03Q136.80 14.03 136.73 15.04L136.73 15.04Q137.04 15.08 137.58 15.10Q138.13 15.11 138.69 15.11Z"></path></g>
        
      </svg>